<svg xmlns="http://www.w3.org/2000/svg" xmlns:xlink="http://www.w3.org/1999/xlink" width="500" zoomAndPan="magnify" viewBox="0 0 375 374.999991" height="500" preserveAspectRatio="xMidYMid meet" version="1.0"><defs><clipPath id="e4ab536848"><path d="M 12.390625 15.835938 L 359.164062 15.835938 L 359.164062 362.609375 L 12.390625 362.609375 Z M 12.390625 15.835938 " clip-rule="nonzero"/></clipPath><clipPath id="dfdaf186a3"><path d="M 185.777344 15.835938 C 90.019531 15.835938 12.390625 93.464844 12.390625 189.222656 C 12.390625 284.980469 90.019531 362.609375 185.777344 362.609375 C 281.535156 362.609375 359.164062 284.980469 359.164062 189.222656 C 359.164062 93.464844 281.535156 15.835938 185.777344 15.835938 " clip-rule="nonzero"/></clipPath><clipPath id="1c2ccbd655"><path d="M 94.160156 119.597656 L 181 119.597656 L 181 259 L 94.160156 259 Z M 94.160156 119.597656 " clip-rule="nonzero"/></clipPath><clipPath id="d77b133256"><path d="M 188 119.597656 L 277.160156 119.597656 L 277.160156 259.09375 L 188 259.09375 Z M 188 119.597656 " clip-rule="nonzero"/></clipPath></defs><g clip-path="url(#e4ab536848)"><g clip-path="url(#dfdaf186a3)"><path fill="#3e4449" d="M 12.390625 15.835938 L 359.164062 15.835938 L 359.164062 362.609375 L 12.390625 362.609375 Z M 12.390625 15.835938 " fill-opacity="1" fill-rule="nonzero"/></g></g><g clip-path="url(#1c2ccbd655)"><path fill="#ffffff" d="M 141.515625 179.300781 C 132.859375 179.300781 124.894531 182.195312 118.457031 187.011719 C 119.089844 166.902344 134.589844 146.78125 165.171875 126.660156 L 160.632812 119.597656 C 116.320312 147.210938 94.160156 177.519531 94.160156 210.515625 C 94.160156 225.664062 98.273438 237.539062 106.5 246.117188 C 114.722656 254.710938 125.132812 258.996094 137.722656 258.996094 C 150.316406 258.996094 160.464844 255.550781 168.191406 248.644531 C 175.910156 241.75 179.773438 233.40625 179.773438 223.648438 C 179.773438 223.535156 179.753906 223.457031 179.753906 223.339844 C 179.988281 221.609375 180.15625 219.859375 180.15625 218.050781 C 180.15625 196.65625 162.851562 179.300781 141.515625 179.300781 Z M 141.515625 179.300781 " fill-opacity="1" fill-rule="nonzero"/></g><g clip-path="url(#d77b133256)"><path fill="#ffffff" d="M 266.449219 244.804688 C 266.949219 244.226562 267.554688 243.671875 268.011719 243.066406 C 273.703125 236.316406 277.160156 227.597656 277.160156 218.050781 C 277.160156 196.65625 259.859375 179.296875 238.523438 179.296875 C 228.753906 179.296875 219.855469 182.964844 213.050781 188.972656 C 213.050781 188.734375 213.011719 188.53125 213.011719 188.285156 C 213.011719 167.746094 228.617188 147.199219 259.847656 126.65625 L 255.3125 119.597656 C 210.992188 147.210938 188.835938 177.519531 188.835938 210.519531 C 188.835938 225.671875 192.945312 237.546875 201.175781 246.121094 C 209.394531 254.714844 219.804688 259.007812 232.394531 259.007812 C 244.984375 259.007812 255.144531 255.554688 262.863281 248.644531 C 263.957031 247.683594 264.804688 246.597656 265.738281 245.566406 C 265.984375 245.320312 266.207031 245.0625 266.449219 244.804688 Z M 266.449219 244.804688 " fill-opacity="1" fill-rule="nonzero"/></g></svg>