<svg xmlns="http://www.w3.org/2000/svg" xmlns:xlink="http://www.w3.org/1999/xlink" width="500" zoomAndPan="magnify" viewBox="0 0 375 374.999991" height="500" preserveAspectRatio="xMidYMid meet" version="1.0"><defs><clipPath id="f7b53fbb7a"><path d="M 7.21875 7.21875 L 367.78125 7.21875 L 367.78125 367.78125 L 7.21875 367.78125 Z M 7.21875 7.21875 " clip-rule="nonzero"/></clipPath><clipPath id="802afb8ec7"><path d="M 187.5 7.21875 C 87.933594 7.21875 7.21875 87.933594 7.21875 187.5 C 7.21875 287.066406 87.933594 367.78125 187.5 367.78125 C 287.066406 367.78125 367.78125 287.066406 367.78125 187.5 C 367.78125 87.933594 287.066406 7.21875 187.5 7.21875 " clip-rule="nonzero"/></clipPath><clipPath id="c5b4db122e"><path d="M 191 110 L 286.742188 110 L 286.742188 264 L 191 264 Z M 191 110 " clip-rule="nonzero"/></clipPath><clipPath id="b6d7368146"><path d="M 87.703125 110 L 184 110 L 184 264 L 87.703125 264 Z M 87.703125 110 " clip-rule="nonzero"/></clipPath></defs><g clip-path="url(#f7b53fbb7a)"><g clip-path="url(#802afb8ec7)"><path fill="#3e4449" d="M 7.21875 7.21875 L 367.78125 7.21875 L 367.78125 367.78125 L 7.21875 367.78125 Z M 7.21875 7.21875 " fill-opacity="1" fill-rule="nonzero"/></g></g><g clip-path="url(#c5b4db122e)"><path fill="#ffffff" d="M 273.074219 124.714844 C 264.609375 115.964844 254.039062 111.316406 241.414062 110.691406 C 239.082031 110.304688 236.699219 110.050781 234.257812 110.050781 C 220.617188 110.050781 208.5 116.417969 200.664062 126.308594 C 196.382812 131.304688 193.671875 136.875 192.597656 143.050781 C 191.886719 146.128906 191.476562 149.324219 191.476562 152.621094 C 191.476562 176.136719 210.632812 195.195312 234.257812 195.195312 C 243.890625 195.195312 252.734375 191.988281 259.886719 186.660156 C 259.902344 187.195312 259.980469 187.6875 259.980469 188.246094 C 259.980469 210.816406 242.691406 233.371094 208.121094 255.933594 L 213.136719 263.703125 C 262.203125 233.375 286.742188 200.085938 286.742188 163.824219 C 286.742188 147.1875 282.175781 134.152344 273.074219 124.714844 Z M 273.074219 124.714844 " fill-opacity="1" fill-rule="nonzero"/></g><g clip-path="url(#b6d7368146)"><path fill="#ffffff" d="M 137.398438 110.65625 C 135.148438 110.296875 132.847656 110.050781 130.484375 110.050781 C 106.859375 110.050781 87.703125 129.113281 87.703125 152.621094 C 87.703125 176.128906 106.859375 195.195312 130.484375 195.195312 C 140.367188 195.195312 149.449219 191.828125 156.703125 186.214844 C 156.738281 186.890625 156.820312 187.527344 156.820312 188.246094 C 156.820312 210.816406 139.539062 233.371094 104.964844 255.933594 L 109.980469 263.703125 C 159.046875 233.375 183.582031 200.085938 183.582031 163.824219 C 183.582031 147.179688 179.023438 134.136719 169.921875 124.707031 C 161.269531 115.757812 150.410156 111.105469 137.398438 110.65625 Z M 137.398438 110.65625 " fill-opacity="1" fill-rule="nonzero"/></g></svg>